<svg xmlns="http://www.w3.org/2000/svg" version="1.1" xmlns:xlink="http://www.w3.org/1999/xlink" xmlns:svgjs="http://svgjs.dev/svgjs" width="1000" height="1000"><g clip-path="url(#SvgjsClipPath1195)"><rect width="1000" height="1000" fill="#ffffff"></rect><g transform="matrix(1.7361111111111112,0,0,1.7361111111111112,121.52777777777777,0)"><svg xmlns="http://www.w3.org/2000/svg" version="1.1" xmlns:xlink="http://www.w3.org/1999/xlink" xmlns:svgjs="http://svgjs.dev/svgjs" width="436" height="576"><svg width="436" height="576" viewBox="0 0 436 576" fill="none" xmlns="http://www.w3.org/2000/svg">
<circle cx="218" cy="284" r="218" fill="url(#paint0_linear_2026_2)"></circle>
<g filter="url(#filter0_d_2026_2)">
<path d="M393 2L91.2271 326.46L207.294 308.034L44 566L358.58 231.926L239.312 247.949L393 2Z" fill="url(#paint1_linear_2026_2)"></path>
<path d="M393 2L91.2271 326.46L207.294 308.034L44 566L358.58 231.926L239.312 247.949L393 2Z" stroke="black" stroke-width="3" stroke-linecap="round" stroke-linejoin="round"></path>
</g>
<defs>
<filter id="filter0_d_2026_2" x="38.5" y="0.5" width="360" height="575" filterUnits="userSpaceOnUse" color-interpolation-filters="sRGB">
<feFlood flood-opacity="0" result="BackgroundImageFix"></feFlood>
<feColorMatrix in="SourceAlpha" type="matrix" values="0 0 0 0 0 0 0 0 0 0 0 0 0 0 0 0 0 0 127 0" result="hardAlpha"></feColorMatrix>
<feOffset dy="4"></feOffset>
<feGaussianBlur stdDeviation="2"></feGaussianBlur>
<feComposite in2="hardAlpha" operator="out"></feComposite>
<feColorMatrix type="matrix" values="0 0 0 0 0 0 0 0 0 0 0 0 0 0 0 0 0 0 0.25 0"></feColorMatrix>
<feBlend mode="normal" in2="BackgroundImageFix" result="effect1_dropShadow_2026_2"></feBlend>
<feBlend mode="normal" in="SourceGraphic" in2="effect1_dropShadow_2026_2" result="shape"></feBlend>
</filter>
<linearGradient id="paint0_linear_2026_2" x1="218" y1="66" x2="218" y2="502" gradientUnits="userSpaceOnUse">
<stop stop-color="#FF8761"></stop>
<stop offset="0.755" stop-color="#FF5555"></stop>
</linearGradient>
<linearGradient id="paint1_linear_2026_2" x1="400" y1="-7.00001" x2="69.5" y2="545.5" gradientUnits="userSpaceOnUse">
<stop offset="0.4" stop-color="#FFE12F"></stop>
<stop offset="0.84" stop-color="#B9A633"></stop>
</linearGradient>
<clipPath id="SvgjsClipPath1195"><rect width="1000" height="1000" x="0" y="0" rx="500" ry="500"></rect></clipPath></defs>
</svg></svg></g></g></svg>